<svg xmlns="http://www.w3.org/2000/svg" width="220" height="220" viewBox="10 1 75 109">
  
  <path d="M 40 102&#xA;           C 20 88, 14 56, 30 32&#xA;           C 40 17, 58 10, 74 14&#xA;           C 66 22, 60 32, 57 46&#xA;           C 52 68, 55 84, 68 96&#xA;           C 60 103, 49 106, 40 102 Z" fill="#a8c94a" stroke="#0f2f1e" stroke-width="5" stroke-linejoin="round"></path>
  
  <path d="M 34 72&#xA;           C 27 58, 29 44, 38 33&#xA;           C 35 44, 34 56, 37 68&#xA;           C 36 70, 35 71, 34 72 Z" fill="#eef4d6" opacity="0.6"></path>
  
  <path d="M 58.2 15&#xA;           C 64.4 8.7, 72.4 5.1, 80.4 8.7&#xA;           C 77 17.4, 71 23.4, 63.9 27 Z" fill="#5c3d1e" stroke="#0f2f1e" stroke-width="5" stroke-linejoin="round"></path>
</svg>