<svg xmlns="http://www.w3.org/2000/svg" width="220" height="220" viewBox="10 1 75 109"><metadata><rdf:RDF xmlns:rdf="http://www.w3.org/1999/02/22-rdf-syntax-ns#" xmlns:dc="http://purl.org/dc/elements/1.1/"><rdf:Description><dc:creator>RealFaviconGenerator</dc:creator><dc:source>https://realfavicongenerator.net</dc:source></rdf:Description></rdf:RDF></metadata><path d="M 40 102
           C 20 88, 14 56, 30 32
           C 40 17, 58 10, 74 14
           C 66 22, 60 32, 57 46
           C 52 68, 55 84, 68 96
           C 60 103, 49 106, 40 102 Z" fill="#a8c94a" stroke="#0f2f1e" stroke-width="5" stroke-linejoin="round"></path><path d="M 34 72
           C 27 58, 29 44, 38 33
           C 35 44, 34 56, 37 68
           C 36 70, 35 71, 34 72 Z" fill="#eef4d6" opacity="0.6"></path><path d="M 58.2 15
           C 64.4 8.7, 72.4 5.1, 80.4 8.7
           C 77 17.4, 71 23.4, 63.9 27 Z" fill="#5c3d1e" stroke="#0f2f1e" stroke-width="5" stroke-linejoin="round"></path><style>@media (prefers-color-scheme: light) { :root { filter: none; } }
@media (prefers-color-scheme: dark) { :root { filter: none; } }
</style></svg>